<?xml version="1.0" encoding="UTF-8" standalone="no"?>
<!DOCTYPE svg PUBLIC "-//W3C//DTD SVG 1.1//EN" "http://www.w3.org/Graphics/SVG/1.1/DTD/svg11.dtd">
<svg role="img" aria-label="Logo de Metrovalencia" width="100%" height="100%" viewBox="0 0 608 134" version="1.1" xmlns="http://www.w3.org/2000/svg" xmlns:xlink="http://www.w3.org/1999/xlink" xml:space="preserve"  style="fill-rule:evenodd;clip-rule:evenodd;stroke-linejoin:round;stroke-miterlimit:2;">
    <g transform="matrix(0.987013,0,0,0.943662,-18.7532,-241.577)">
        <rect x="19" y="256" width="616" height="142" style="fill:none;"/>
        <g transform="matrix(1.01316,0,0,1.0597,19,256)">
            <path d="M294.1,79.2C294.1,61.4 282.1,53.2 268.9,53.2C255.6,53.2 243.7,61.4 243.7,79.2C243.7,97 255.7,105.2 268.9,105.2C282.2,105.2 294.1,97 294.1,79.2ZM576.4,78C565.6,79.4 560.3,84.1 560.3,91.9C560.3,100.8 567.6,105.2 575.7,105.2C582.4,105.2 588.4,102.5 592.9,97.5C593,100.7 593.6,103.8 597.2,104.4C598,104.6 598.7,104.7 599.6,104.7C601.1,104.7 603,104.1 603.8,103.8L603.8,99.6C599.3,101.2 598.2,100.2 598.2,96L598.2,70.9C598.2,60.2 590.8,56.6 581.5,56.6C571.4,56.6 563.3,61 562.5,71.8L567.9,71.8C568.9,63.8 574,61.4 581.3,61.4C589.6,61.4 592.8,65.3 592.8,70.7C592.8,72.3 592.6,74.7 590.8,75.5C589,76.3 585.7,76.8 583.8,77L576.4,78ZM356.2,78C345.4,79.4 340.1,84.1 340.1,91.9C340.1,100.8 347.4,105.2 355.5,105.2C362.2,105.2 368.2,102.5 372.7,97.5C372.8,100.7 373.4,103.8 377,104.4C377.8,104.6 378.5,104.7 379.4,104.7C380.9,104.7 382.8,104.1 383.6,103.8L383.6,99.6C379.1,101.2 378,100.2 378,96L378,70.9C378,60.2 370.6,56.6 361.3,56.6C351.2,56.6 343.1,61 342.3,71.8L347.7,71.8C348.7,63.8 353.8,61.4 361.1,61.4C369.4,61.4 372.6,65.3 372.6,70.7C372.6,72.3 372.4,74.7 370.6,75.5C368.8,76.3 365.5,76.8 363.6,77L356.2,78ZM444.9,82.1C445,65.5 437.2,56.5 424.6,56.5C411.4,56.5 403.4,67.5 403.4,81C403.4,94.6 409.8,105.1 424.6,105.1C436.3,105.1 441.9,98.4 444.5,89.7L438.5,89.7C436.9,96.5 431.5,100.3 424.5,100.3C414.3,100.3 408.9,92 409,82L444.9,82L444.9,82.1ZM537.3,72.3L531.9,72.3C530,65.4 525.3,61.3 518.2,61.3C507.2,61.3 502.7,71.3 502.7,80.9C502.7,90.6 507.2,100.3 518.2,100.3C526.2,100.3 531.2,95.6 532.4,87.9L538.1,87.9C536.2,98.2 529.8,105.1 518.2,105.1C503.5,105.1 497,94.5 497,80.9C497,68.1 504.4,56.5 518.2,56.5C528.8,56.5 535.7,61.6 537.3,72.3ZM168,89.4C167,92.9 163.3,94.8 159.7,94.8C149.2,94.8 148.5,86.5 148.1,82.7L182,82.7L182,80.4C182,57.9 168.6,53.2 158.8,53.2C137.2,53.2 135.2,72.2 135.2,78.1C135.2,98.4 145.9,105.1 159.8,105.1C168.2,105.1 178.1,101.2 181.5,89.3L168,89.3L168,89.4ZM202.2,41.2L189.2,41.2L189.2,54.6L182.5,54.6L182.5,63.9L189.2,63.9L189.2,93.9C189.2,100.3 191.2,104.6 202.5,104.6L204.2,104.6C206.2,104.6 208.3,104.5 210.3,104.4L210.3,94.6C209.4,94.7 208.4,94.8 207.6,94.8C202.3,94.8 202.2,93.7 202.2,90.8L202.2,64L210.3,64L210.3,54.7L202.2,54.7L202.2,41.2ZM457.9,79C457.9,75.8 458,73.2 459.1,70.3C460.8,65.6 465.3,61.3 471.9,61.3C480.4,61.3 483.8,65.5 483.8,73.8L483.8,103.9L489.1,103.9L489.1,73.7C489.1,69.9 489,66.4 486.8,63.1C483.5,58.3 478.3,56.5 472.7,56.5C466.3,56.5 462.1,59.6 457.8,64.2L457.8,57.8L452.5,57.8L452.5,103.9L457.8,103.9L457.8,79L457.9,79ZM241.575,53.2C242.356,53.206 243.225,53.303 244,53.4L244,66.6C242.9,66.4 241.5,66.4 240.3,66.4C230.2,66.4 228.3,72.7 228.3,78.2L228.3,103.9L215.4,103.9L215.4,54.5L227.8,54.5L227.8,63L228,63C230.6,58 233.6,53.2 241.5,53.2L241.575,53.2ZM395.2,39.8L389.9,39.8L389.9,103.9L395.2,103.9L395.2,39.8ZM313.5,103.9L319.4,103.9L337.3,57.7L331.5,57.7L316.6,97.3L301.6,57.7L295.8,57.7L313.5,103.9ZM552.1,57.7L546.8,57.7L546.8,103.8L552.1,103.8L552.1,57.7ZM592.8,86.9C592.8,96.2 584.4,100.3 576,100.3C570.9,100.3 566,97.6 566,92C566,85.8 570.9,82.8 579,82.2C583.6,81.8 588.3,81.5 592.8,79.6L592.8,86.9ZM372.6,86.9C372.6,96.2 364.2,100.3 355.8,100.3C350.7,100.3 345.8,97.6 345.8,92C345.8,85.8 350.7,82.8 358.8,82.2C363.4,81.8 368.1,81.5 372.6,79.6L372.6,86.9ZM280.8,79.2C280.8,85.5 278.9,94.2 268.9,94.2C258.9,94.2 257,85.5 257,79.2C257,72.9 258.9,64.2 268.9,64.2C278.9,64.2 280.8,72.9 280.8,79.2ZM409.1,77.6C410.2,68.9 415.2,61.3 424.6,61.3C434.2,61.3 439.2,68.6 439.2,77.6L409.1,77.6ZM148.5,74.3C149.2,67.8 152.5,63.9 158.6,63.9C162.8,63.9 167.9,66.3 168.6,74.3L148.5,74.3ZM552.3,39.8L546.4,39.8L546.4,47.7L552.3,47.7L552.3,39.8Z" style="fill:rgb(28,28,27);fill-rule:nonzero;"/>
        </g>
        <g transform="matrix(1.01316,0,0,1.0597,-4.30263,-20.5821)">
            <path d="M26.8,327.3C26.8,291.5 55.8,262.5 91.6,262.5C127.4,262.5 156.4,291.5 156.4,327.3C156.4,363.1 127.4,392.1 91.6,392.1C55.8,392.1 26.8,363.1 26.8,327.3" style="fill:rgb(206,27,66);fill-rule:nonzero;"/>
        </g>
        <g transform="matrix(1.01316,0,0,1.0597,19,256)">
            <path d="M68.4,51.8L68.4,57.9L68.6,57.9C70.5,54.7 74.2,50.5 82,50.5C88.9,50.5 92.2,52.9 95.4,57.8C97.2,55.2 100.9,50.5 108.2,50.5C117.9,50.5 125.4,56.2 125.4,67L125.4,97.524C124.362,99.408 123.234,101.235 122.019,103L111.8,103L111.8,70.2C111.8,66.5 111.8,61.3 104.9,61.3C99.4,61.3 97.7,65.1 97.7,69.9L97.7,103L83.3,103L83.3,70.2C83.3,66.5 83.3,61.3 76.4,61.3C70.9,61.3 69.2,65.1 69.2,69.9L69.2,103L54.8,103L54.8,51.8L68.4,51.8Z" style="fill:white;fill-rule:nonzero;"/>
        </g>
    </g>
</svg>
