<?xml version="1.0" encoding="UTF-8" standalone="no"?>
<!DOCTYPE svg PUBLIC "-//W3C//DTD SVG 1.1//EN" "http://www.w3.org/Graphics/SVG/1.1/DTD/svg11.dtd">
<svg role="img" aria-label="Logo de Metro" width="100%" height="100%" viewBox="0 0 305 134" version="1.1" xmlns="http://www.w3.org/2000/svg" xmlns:xlink="http://www.w3.org/1999/xlink" xml:space="preserve" style="fill-rule:evenodd;clip-rule:evenodd;stroke-linejoin:round;stroke-miterlimit:2;">
    <g transform="matrix(0.987013,0,0,0.943662,-18.7532,-241.577)">
        <rect x="19" y="256" width="310" height="142" style="fill:none;"/>
        <g transform="matrix(1.01316,0,0,1.0597,19,256)">
            <path d="M294.1,79.2C294.1,61.4 282.1,53.2 268.9,53.2C255.6,53.2 243.7,61.4 243.7,79.2C243.7,97 255.7,105.2 268.9,105.2C282.2,105.2 294.1,97 294.1,79.2ZM168,89.4C167,92.9 163.3,94.8 159.7,94.8C149.2,94.8 148.5,86.5 148.1,82.7L182,82.7L182,80.4C182,57.9 168.6,53.2 158.8,53.2C137.2,53.2 135.2,72.2 135.2,78.1C135.2,98.4 145.9,105.1 159.8,105.1C168.2,105.1 178.1,101.2 181.5,89.3L168,89.3L168,89.4ZM202.2,41.2L189.2,41.2L189.2,54.6L182.5,54.6L182.5,63.9L189.2,63.9L189.2,93.9C189.2,100.3 191.2,104.6 202.5,104.6L204.2,104.6C206.2,104.6 208.3,104.5 210.3,104.4L210.3,94.6C209.4,94.7 208.4,94.8 207.6,94.8C202.3,94.8 202.2,93.7 202.2,90.8L202.2,64L210.3,64L210.3,54.7L202.2,54.7L202.2,41.2ZM241.575,53.2C242.356,53.206 243.225,53.303 244,53.4L244,66.6C242.9,66.4 241.5,66.4 240.3,66.4C230.2,66.4 228.3,72.7 228.3,78.2L228.3,103.9L215.4,103.9L215.4,54.5L227.8,54.5L227.8,63L228,63C230.6,58 233.6,53.2 241.5,53.2L241.575,53.2ZM280.8,79.2C280.8,85.5 278.9,94.2 268.9,94.2C258.9,94.2 257,85.5 257,79.2C257,72.9 258.9,64.2 268.9,64.2C278.9,64.2 280.8,72.9 280.8,79.2ZM148.5,74.3C149.2,67.8 152.5,63.9 158.6,63.9C162.8,63.9 167.9,66.3 168.6,74.3L148.5,74.3Z" style="fill:rgb(28,28,27);fill-rule:nonzero;"/>
        </g>
        <g transform="matrix(1.01316,0,0,1.0597,-4.30263,-20.5821)">
            <path d="M26.8,327.3C26.8,291.5 55.8,262.5 91.6,262.5C127.4,262.5 156.4,291.5 156.4,327.3C156.4,363.1 127.4,392.1 91.6,392.1C55.8,392.1 26.8,363.1 26.8,327.3" style="fill:rgb(206,27,66);fill-rule:nonzero;"/>
        </g>
        <g transform="matrix(1.01316,0,0,1.0597,19,256)">
            <path d="M68.4,51.8L68.4,57.9L68.6,57.9C70.5,54.7 74.2,50.5 82,50.5C88.9,50.5 92.2,52.9 95.4,57.8C97.2,55.2 100.9,50.5 108.2,50.5C117.9,50.5 125.4,56.2 125.4,67L125.4,97.524C124.362,99.408 123.234,101.235 122.019,103L111.8,103L111.8,70.2C111.8,66.5 111.8,61.3 104.9,61.3C99.4,61.3 97.7,65.1 97.7,69.9L97.7,103L83.3,103L83.3,70.2C83.3,66.5 83.3,61.3 76.4,61.3C70.9,61.3 69.2,65.1 69.2,69.9L69.2,103L54.8,103L54.8,51.8L68.4,51.8Z" style="fill:white;fill-rule:nonzero;"/>
        </g>
    </g>
</svg>